<?xml version="1.0" standalone="no"?><svg xmlns="http://www.w3.org/2000/svg" viewBox="0 0 1440 320"><path fill="#0099ff" fill-opacity="0.8" d="M0,288L26.7,282.7C53.3,277,107,267,160,229.3C213.3,192,267,128,320,106.7C373.3,85,427,107,480,112C533.3,117,587,107,640,133.3C693.3,160,747,224,800,245.3C853.3,267,907,245,960,224C1013.3,203,1067,181,1120,186.7C1173.3,192,1227,224,1280,250.7C1333.3,277,1387,299,1413,309.3L1440,320L1440,320L1413.3,320C1386.7,320,1333,320,1280,320C1226.7,320,1173,320,1120,320C1066.7,320,1013,320,960,320C906.7,320,853,320,800,320C746.7,320,693,320,640,320C586.7,320,533,320,480,320C426.7,320,373,320,320,320C266.7,320,213,320,160,320C106.7,320,53,320,27,320L0,320Z"></path></svg>